<svg xmlns="http://www.w3.org/2000/svg" xmlns:xlink="http://www.w3.org/1999/xlink" width="279" height="93" viewBox="0 0 279 93">
    <defs>
        <radialGradient id="6839jo5f2a" cx="50%" cy="50%" r="50%" fx="50%" fy="50%" gradientTransform="matrix(1 0 0 .98925 0 .005)">
            <stop offset="0%" stop-color="#5FB3FF"/>
            <stop offset="13.355%" stop-color="#83CFF2"/>
            <stop offset="100%" stop-color="#83CFF2"/>
        </radialGradient>
        <radialGradient id="wdys9l9a3b" cx="10.866%" cy="50.254%" r="62.097%" fx="10.866%" fy="50.254%" gradientTransform="matrix(1 0 0 .68064 0 .16)">
            <stop offset="0%" stop-color="#83CFF2"/>
            <stop offset="18.46%" stop-color="#83CFF2"/>
            <stop offset="93.54%" stop-color="#5FB3FF"/>
        </radialGradient>
        <path id="79hfewc6vc" d="M5.632 50l4.291-11.29h-1.69l-2.982 8.328-.262.938h-.047l-.262-.938-2.983-8.328H0L4.291 50h1.34zm7.599 0V38.71h-1.654V50h1.654zm6.732 0c1.195 0 2.163-.269 2.905-.806.742-.538 1.113-1.25 1.113-2.133 0-.82-.308-1.508-.924-2.066-.616-.557-1.514-.98-2.692-1.266-.97-.24-1.67-.521-2.101-.84-.431-.32-.647-.717-.647-1.195 0-.537.197-.974.59-1.311.394-.337.96-.505 1.7-.505.723 0 1.316.203 1.78.61.463.407.695.922.695 1.545h1.51l.024-.045c.022-.874-.333-1.639-1.064-2.295-.731-.655-1.713-.983-2.945-.983-1.146 0-2.078.286-2.796.859s-1.077 1.289-1.077 2.148c0 .814.334 1.49 1 2.027.667.538 1.595.945 2.785 1.221.958.236 1.628.523 2.008.86.38.336.57.753.57 1.25 0 .543-.217.973-.654 1.29-.437.316-1.03.474-1.78.474-.701 0-1.33-.187-1.888-.561-.557-.375-.836-.906-.836-1.594h-1.51l-.016.045c-.027.995.392 1.789 1.257 2.382.865.593 1.863.889 2.993.889zm7.325 0V38.71h-1.653V50h1.653zm6.957 0V39.912h3.793V38.71h-9.096v1.202h3.746V50h1.557zm11.21 0v-8.607l.05-.016L51.294 50h1.628V38.71h-1.627v8.6l-.05.015-5.792-8.615h-1.627V50h1.627zm13.588 0c1.37 0 2.484-.442 3.342-1.326.859-.885 1.288-1.998 1.288-3.34v-1.951c0-1.342-.43-2.456-1.288-3.343-.858-.887-1.972-1.33-3.342-1.33-1.322 0-2.398.444-3.225 1.334-.827.89-1.241 2.002-1.241 3.339v1.952c0 1.341.414 2.454 1.241 3.339.827.884 1.903 1.326 3.225 1.326zm.004-1.613c-.857 0-1.54-.322-2.05-.966-.511-.645-.766-1.475-.766-2.492v-1.97c0-1.007.255-1.832.765-2.477.51-.644 1.194-.966 2.05-.966.907 0 1.629.322 2.167.966.537.645.806 1.47.806 2.477v1.97c0 1.022-.267 1.854-.803 2.496-.535.641-1.258.962-2.17.962zM70.63 50V39.912h3.793V38.71h-9.096v1.202h3.746V50h1.557zm12.89 0v-1.194H77.71v-4.04h4.962v-1.202H77.71v-3.652h5.717V38.71h-7.351V50h7.442zm5.078 0c1.194 0 2.163-.269 2.905-.806.741-.538 1.112-1.25 1.112-2.133 0-.82-.308-1.508-.924-2.066-.616-.557-1.513-.98-2.691-1.266-.97-.24-1.67-.521-2.102-.84-.43-.32-.646-.717-.646-1.195 0-.537.197-.974.59-1.311.394-.337.96-.505 1.7-.505.723 0 1.316.203 1.78.61.463.407.694.922.694 1.545h1.511l.024-.045c.022-.874-.333-1.639-1.065-2.295-.73-.655-1.712-.983-2.944-.983-1.147 0-2.079.286-2.797.859-.717.573-1.076 1.289-1.076 2.148 0 .814.333 1.49 1 2.027.667.538 1.595.945 2.784 1.221.96.236 1.629.523 2.009.86.38.336.57.753.57 1.25 0 .543-.218.973-.654 1.29-.437.316-1.03.474-1.78.474-.702 0-1.331-.187-1.888-.561-.557-.375-.836-.906-.836-1.594h-1.51l-.017.045c-.026.995.393 1.789 1.258 2.382.865.593 1.863.889 2.993.889z"/>
    </defs>
    <g fill="none" fill-rule="evenodd">
        <g>
            <g>
                <g fill-rule="nonzero">
                    <g>
                        <path fill="url(#6839jo5f2a)" d="M46 93c-12.288 0-23.838-4.837-32.527-13.62C4.785 70.598 0 58.92 0 46.5c0-12.42 4.785-24.097 13.473-32.88C22.16 4.837 33.713 0 46 0c12.288 0 23.838 4.837 32.527 13.62C87.215 22.402 92 34.08 92 46.5c0 12.42-4.785 24.098-13.473 32.882C69.838 88.164 58.287 93 46 93z" transform="translate(-75 -117) translate(75 117)"/>
                        <path fill="#FFF" d="M45.952 2.824c-11.528 0-22.365 4.538-30.517 12.778-8.151 8.24-12.641 19.196-12.641 30.85 0 11.653 4.489 22.607 12.64 30.848 8.152 8.24 18.99 12.779 30.518 12.779 11.528 0 22.365-4.538 30.517-12.779 8.15-8.24 12.64-19.195 12.64-30.849 0-11.653-4.488-22.608-12.64-30.849-8.152-8.24-18.99-12.778-30.517-12.778z" transform="translate(-75 -117) translate(75 117)"/>
                    </g>
                    <g>
                        <path fill="url(#wdys9l9a3b)" d="M16.265.001v16.55H0V35.66h16.265v15.635c.528.11 1.062.194 1.606.191 4.008-.03 8.017-.03 12.02-.009.686.005 1.359-.127 2.027-.28-.564-1.22-1.063-2.468-1.503-3.735-.44-1.509-1.807-2.397-2.792-3.508-2.361-2.328-4.185-5.192-5.406-8.294-.025-.062-.052-.122-.077-.185-1.737-4.703-1.371-10.08 1.11-14.442.96-1.67 2.164-3.148 3.514-4.48 1.436-1.417 3.037-2.669 4.693-3.803 1.258-.763 2.453-1.628 3.586-2.568V0H16.265v.001z" transform="translate(-75 -117) translate(75 117) translate(19.714 20.575)"/>
                        <path fill="#63E18A" d="M53.156 23.314C52.758 14.67 48.724 6.644 43.483 0c.058 4.315-2.157 8.23-5.138 11.15-1.01 1.014-2.14 1.867-3.3 2.68-1.295.904-2.628 1.757-3.88 2.721-.568.437-1.119.896-1.642 1.396-2.601 2.527-4.786 5.743-5.196 9.462-.36 2.86.251 5.675 1.429 8.249.864 1.888 2.032 3.65 3.356 5.2.062-1.714.247-3.471.58-5.2.78-4.042 2.408-7.921 5.354-10.72.452-.428.924-.84 1.44-1.214.823-.474 1.586-1.188 2.566-1.251-1.557 1.82-2.897 3.829-4.006 5.964-.263.507-.518 1.018-.753 1.538-.794 1.81-1.34 3.728-1.65 5.684-.777 4.915-.008 10.076 2.403 14.423.134.243.264.489.41.726 4.515-2.68 8.73-6.018 11.987-10.206 1.193-1.535 2.222-3.195 3.084-4.942.278-.565.542-1.138.784-1.72.136-.325.265-.653.39-.984 1.064-3.091 1.533-6.37 1.455-9.642z" transform="translate(-75 -117) translate(75 117) translate(19.714 20.575)"/>
                    </g>
                </g>
                <g fill-rule="nonzero">
                    <path fill="#FFF" d="M18.192 29.032V24.69H5.688v-8.065h10.518v-4.362H5.688V5.168h12.465V.806H0v28.226h18.192zm17.445 0L45.48.806h-6.125L33.05 21.433l-.338 1.493h-.12l-.357-1.551L25.97.806h-6.125l9.824 28.226h5.967zm26.461 0L71.942.806h-6.125l-6.304 20.627-.338 1.493h-.12l-.358-1.551L52.433.806h-6.125l9.824 28.226h5.966zm18.053 0V18.797h5.199c3.282 0 5.865-.821 7.748-2.462 1.883-1.642 2.825-3.813 2.825-6.514s-.942-4.879-2.825-6.533C91.215 1.634 88.632.806 85.35.806H74.423v28.226h5.728zm5.186-15.322h-5.125V4.839h5.125c1.587 0 2.783.423 3.589 1.271.806.847 1.209 1.92 1.209 3.22 0 1.274-.407 2.323-1.219 3.146-.812.822-2.005 1.234-3.579 1.234zm33.74 15.322V24.69H105.94V.806h-5.883v28.226h19.019zm15.672 0c3.436 0 6.231-.885 8.385-2.656 2.154-1.77 3.231-4.223 3.231-7.358V.806h-5.808v18.212c0 1.86-.522 3.281-1.566 4.262-1.044.981-2.458 1.472-4.242 1.472-1.758 0-3.152-.49-4.183-1.472-1.03-.98-1.546-2.401-1.546-4.262V.806h-5.808v18.212c0 3.135 1.067 5.587 3.201 7.358 2.134 1.77 4.913 2.656 8.336 2.656zm26.845 0c3.13 0 5.646-.697 7.55-2.093 1.904-1.395 2.856-3.301 2.856-5.717 0-2.313-.822-4.177-2.465-5.591-1.643-1.415-4.03-2.562-7.159-3.44-2.047-.685-3.488-1.335-4.323-1.948-.834-.614-1.252-1.399-1.252-2.355 0-1.047.385-1.906 1.154-2.578.77-.672 1.859-1.007 3.267-1.007 1.552 0 2.758.377 3.619 1.133.86.756 1.29 1.838 1.29 3.247h5.536l.04-.117c.065-2.558-.864-4.625-2.788-6.202C166.996.788 164.456 0 161.3 0c-2.973 0-5.418.733-7.335 2.2-1.917 1.466-2.875 3.356-2.875 5.669 0 2.3.85 4.115 2.552 5.446 1.702 1.33 4.196 2.487 7.482 3.469 1.917.581 3.257 1.201 4.02 1.86.763.66 1.144 1.531 1.144 2.617 0 1.06-.4 1.905-1.203 2.538-.802.634-1.966.95-3.491.95-1.696 0-3.039-.394-4.03-1.182-.99-.788-1.486-2.016-1.486-3.682h-5.536l-.04.116c-.064 2.997 1.002 5.252 3.199 6.764 2.197 1.511 4.828 2.267 7.893 2.267z" transform="translate(-75 -117) translate(75 117) translate(107 22)"/>
                    <g transform="translate(-75 -117) translate(75 117) translate(107 22)">
                        <use fill="#000" xlink:href="#79hfewc6vc"/>
                        <use fill="#FFF" xlink:href="#79hfewc6vc"/>
                    </g>
                </g>
            </g>
        </g>
    </g>
</svg>
