<svg xmlns="http://www.w3.org/2000/svg" xmlns:xlink="http://www.w3.org/1999/xlink" width="260" height="260" viewBox="0 0 260 260">
    <defs>
        <radialGradient id="tdx7ibdpya" cx="50%" cy="50%" r="50%" fx="50%" fy="50%" gradientTransform="matrix(1 0 0 .99422 0 .003)">
            <stop offset="0%" stop-color="#5FB3FF"/>
            <stop offset="13.355%" stop-color="#83CFF2"/>
            <stop offset="100%" stop-color="#83CFF2"/>
        </radialGradient>
        <radialGradient id="ukhlktelxb" cx="10.866%" cy="50.254%" r="62.097%" fx="10.866%" fy="50.254%" gradientTransform="matrix(1 0 0 .6885 0 .157)">
            <stop offset="0%" stop-color="#83CFF2"/>
            <stop offset="18.46%" stop-color="#83CFF2"/>
            <stop offset="93.54%" stop-color="#5FB3FF"/>
        </radialGradient>
        <path id="dk56m79ngc" d="M6.81 14L12 0H9.957L6.35 10.327l-.316 1.163h-.058l-.317-1.163L2.053 0H0l5.19 14h1.62zM16 14V0h-2v14h2zm8.142 0c1.444 0 2.615-.333 3.512-1 .897-.667 1.346-1.548 1.346-2.645 0-1.015-.372-1.869-1.117-2.56-.745-.692-1.83-1.216-3.256-1.57-1.172-.3-2.019-.647-2.54-1.043-.522-.395-.783-.89-.783-1.481 0-.667.238-1.209.715-1.626.476-.418 1.16-.626 2.055-.626.874 0 1.592.252 2.152.757.56.504.84 1.143.84 1.915h1.827l.03-.056c.025-1.084-.404-2.032-1.288-2.845C26.75.407 25.564 0 24.074 0c-1.387 0-2.514.355-3.382 1.065-.868.71-1.302 1.599-1.302 2.664 0 1.01.403 1.847 1.21 2.514.806.667 1.929 1.171 3.367 1.514 1.16.293 1.969.648 2.429 1.065.46.418.69.935.69 1.552 0 .673-.264 1.205-.792 1.598-.528.392-1.245.589-2.152.589-.849 0-1.61-.232-2.284-.697-.674-.464-1.01-1.123-1.01-1.976H19.02l-.02.056c-.032 1.234.475 2.218 1.521 2.953 1.046.735 2.253 1.103 3.62 1.103zM33 14V0h-2v14h2zm8.413 0V1.49H46V0H35v1.49h4.53V14h1.883zm13.555 0V3.327l.06-.02L62.032 14H64V0h-1.968v10.663l-.06.02L54.968 0H53v14h1.968zm16.433 0c1.656 0 3.003-.548 4.042-1.645C76.48 11.26 77 9.88 77 8.215v-2.42c0-1.664-.52-3.046-1.557-4.145C74.404.55 73.057 0 71.4 0c-1.6 0-2.9.551-3.9 1.654C66.5 2.757 66 4.137 66 5.794v2.421c0 1.664.5 3.044 1.5 4.14C68.502 13.452 69.803 14 71.402 14zm.004-2c-1.036 0-1.862-.4-2.48-1.198-.616-.8-.925-1.829-.925-3.09V5.27c0-1.248.309-2.272.926-3.07.617-.8 1.443-1.199 2.48-1.199 1.095 0 1.968.4 2.619 1.198.65.8.975 1.823.975 3.07v2.444c0 1.267-.324 2.299-.971 3.094-.647.796-1.522 1.194-2.624 1.194zm14.008 2V1.49H90V0H79v1.49h4.53V14h1.883zM101 14v-1.48h-7.023V7.51h6V6.02h-6V1.49h6.913V0H92v14h9zm6.142 0c1.444 0 2.615-.333 3.512-1 .897-.667 1.346-1.548 1.346-2.645 0-1.015-.372-1.869-1.117-2.56-.745-.692-1.83-1.216-3.256-1.57-1.172-.3-2.019-.647-2.54-1.043-.522-.395-.783-.89-.783-1.481 0-.667.238-1.209.715-1.626.476-.418 1.16-.626 2.055-.626.874 0 1.592.252 2.152.757.56.504.84 1.143.84 1.915h1.827l.03-.056c.025-1.084-.404-2.032-1.288-2.845C109.75.407 108.564 0 107.074 0c-1.387 0-2.514.355-3.382 1.065-.868.71-1.302 1.599-1.302 2.664 0 1.01.403 1.847 1.21 2.514.806.667 1.929 1.171 3.367 1.514 1.16.293 1.969.648 2.429 1.065.46.418.69.935.69 1.552 0 .673-.264 1.205-.792 1.598-.528.392-1.245.589-2.152.589-.849 0-1.61-.232-2.284-.697-.674-.464-1.01-1.123-1.01-1.976h-1.827l-.02.056c-.032 1.234.475 2.218 1.521 2.953 1.046.735 2.253 1.103 3.62 1.103z"/>
    </defs>
    <g fill="none" fill-rule="evenodd">
        <g fill-rule="nonzero">
            <g>
                <g>
                    <g>
                        <path fill="url(#tdx7ibdpya)" d="M86 173c-22.972 0-44.567-8.998-60.812-25.335C8.946 131.328 0 109.605 0 86.5s8.946-44.827 25.188-61.166C41.431 8.998 63.028 0 86 0c22.972 0 44.567 8.998 60.812 25.335C163.054 41.672 172 63.395 172 86.501c0 23.104-8.946 44.827-25.188 61.166C130.567 164.004 108.97 173 86 173z" transform="translate(-84 -333) translate(84 333) translate(43)"/>
                        <path fill="#FFF" d="M85.91 5.253c-21.552 0-41.813 8.441-57.054 23.77C13.617 44.352 5.223 64.733 5.223 86.41c0 21.678 8.392 42.056 23.633 57.386 15.239 15.327 35.502 23.77 57.054 23.77s41.813-8.44 57.054-23.77c15.238-15.327 23.633-35.708 23.633-57.386 0-21.677-8.392-42.056-23.633-57.385-15.241-15.33-35.502-23.77-57.054-23.77z" transform="translate(-84 -333) translate(84 333) translate(43)"/>
                    </g>
                    <g>
                        <path fill="url(#ukhlktelxb)" d="M30.463.002v30.643H0v35.378h30.463v28.948c.99.202 1.99.36 3.007.354 7.508-.056 15.016-.056 22.514-.016 1.283.009 2.544-.236 3.796-.518-1.058-2.26-1.992-4.57-2.815-6.916-.824-2.794-3.385-4.438-5.23-6.495-4.422-4.311-7.838-9.613-10.125-15.357-.047-.115-.098-.226-.144-.342-3.253-8.709-2.568-18.664 2.078-26.74 1.8-3.092 4.054-5.828 6.582-8.296 2.69-2.623 5.688-4.94 8.79-7.041 2.357-1.413 4.593-3.014 6.715-4.753V0H30.463v.002z" transform="translate(-84 -333) translate(84 333) translate(43) translate(36.58 39.14)"/>
                        <path fill="#63E18A" d="M99.557 43.166C98.81 27.162 91.257 12.303 81.439 0c.108 7.99-4.038 15.237-9.623 20.643-1.89 1.88-4.007 3.459-6.18 4.962-2.425 1.675-4.922 3.254-7.267 5.04-1.064.808-2.095 1.66-3.076 2.583-4.87 4.68-8.963 10.635-9.731 17.52-.673 5.296.47 10.506 2.676 15.273 1.619 3.496 3.807 6.757 6.287 9.626.115-3.171.461-6.425 1.086-9.626 1.46-7.483 4.509-14.666 10.027-19.848.846-.793 1.731-1.555 2.696-2.248 1.541-.877 2.972-2.199 4.807-2.316-2.917 3.371-5.425 7.09-7.503 11.043-.492.937-.97 1.884-1.41 2.847-1.487 3.35-2.51 6.902-3.09 10.524-1.455 9.1-.015 18.656 4.5 26.705.252.449.495.904.766 1.344 8.457-4.962 16.354-11.144 22.452-18.898 2.235-2.84 4.163-5.915 5.777-9.149.52-1.046 1.015-2.107 1.468-3.185.254-.602.497-1.208.729-1.821 1.994-5.724 2.873-11.796 2.727-17.853z" transform="translate(-84 -333) translate(84 333) translate(43) translate(36.58 39.14)"/>
                    </g>
                </g>
                <path fill="#FFF" d="M28.087 234.37v-6.73H8.781v-12.496H25.02v-6.76H8.78V197.39h19.247v-6.76H0v43.74h28.087zm26.223 0l14.885-43.74h-9.262L50.4 222.594l-.511 2.314h-.18l-.542-2.404-9.472-31.872h-9.262l14.855 43.738h9.022zm39.183 0l14.885-43.74h-9.262l-9.532 31.963-.512 2.314h-.18l-.541-2.404-9.473-31.872h-9.262l14.855 43.738h9.022zm27.906 0v-15.862h7.97c5.031 0 8.99-1.272 11.878-3.815 2.887-2.543 4.33-5.908 4.33-10.094 0-4.185-1.443-7.56-4.33-10.123-2.887-2.563-6.847-3.845-11.879-3.845h-16.75v43.738h8.781zm7.97-22.621h-7.97v-14.36h7.97c2.465 0 4.325.687 5.578 2.059 1.253 1.371 1.88 3.109 1.88 5.212 0 2.062-.632 3.76-1.895 5.091-1.263 1.332-3.118 1.998-5.564 1.998zm50.88 22.62v-6.729h-19.606v-37.01h-8.78v43.74h28.387zm22.915.631c5.213 0 9.453-1.392 12.72-4.176 3.269-2.783 4.902-6.638 4.902-11.565v-28.628h-8.81v28.628c0 2.924-.792 5.157-2.376 6.699-1.584 1.542-3.73 2.313-6.436 2.313-2.666 0-4.78-.771-6.345-2.313-1.563-1.542-2.345-3.775-2.345-6.699v-28.628h-8.811v28.628c0 4.927 1.619 8.782 4.856 11.565 3.238 2.784 7.453 4.176 12.645 4.176zm40.838 0c4.811 0 8.68-1.081 11.608-3.244 2.927-2.163 4.39-5.117 4.39-8.862 0-3.585-1.263-6.474-3.789-8.667-2.526-2.193-6.195-3.97-11.006-5.332-3.148-1.061-5.363-2.068-6.646-3.019-1.283-.951-1.925-2.168-1.925-3.65 0-1.622.592-2.954 1.775-3.995 1.182-1.041 2.856-1.562 5.021-1.562 2.386 0 4.24.586 5.564 1.757 1.323 1.172 1.984 2.849 1.984 5.032h8.51l.06-.18c.101-3.966-1.327-7.17-4.284-9.613-2.957-2.443-6.862-3.665-11.713-3.665-4.571 0-8.33 1.137-11.277 3.41-2.947 2.273-4.42 5.201-4.42 8.786 0 3.565 1.307 6.379 3.924 8.442 2.616 2.062 6.45 3.855 11.502 5.377 2.947.9 5.007 1.862 6.18 2.884 1.173 1.02 1.76 2.373 1.76 4.055 0 1.642-.617 2.954-1.85 3.935-1.233.981-3.023 1.472-5.368 1.472-2.606 0-4.671-.61-6.195-1.832s-2.285-3.124-2.285-5.708h-8.51l-.06.18c-.101 4.647 1.538 8.141 4.916 10.484S239.29 235 244.002 235z" transform="translate(-84 -333) translate(84 333)"/>
                <g transform="translate(-84 -333) translate(84 333) translate(74 246)">
                    <use fill="#000" xlink:href="#dk56m79ngc"/>
                    <use fill="#FFF" xlink:href="#dk56m79ngc"/>
                </g>
            </g>
        </g>
    </g>
</svg>
