<svg xmlns="http://www.w3.org/2000/svg" width="17" height="17" viewBox="0 0 17 17">
    <g fill="none" fill-rule="evenodd" opacity=".6">
        <g fill="#646464" fill-rule="nonzero">
            <g>
                <g>
                    <path d="M125.32 34.82c2.292 0 4.252-.813 5.88-2.441 1.627-1.628 2.44-3.587 2.44-5.879 0-2.292-.813-4.251-2.44-5.879-1.628-1.628-3.588-2.441-5.88-2.441-2.291 0-4.257.82-5.898 2.46-1.615 1.615-2.422 3.568-2.422 5.86 0 2.292.814 4.251 2.441 5.879 1.628 1.628 3.588 2.441 5.88 2.441zm0-1.68c-1.849 0-3.424-.65-4.726-1.953-1.276-1.302-1.914-2.864-1.914-4.687 0-1.823.644-3.385 1.933-4.688 1.29-1.302 2.858-1.953 4.707-1.953 1.85 0 3.418.651 4.707 1.953 1.29 1.303 1.934 2.865 1.934 4.688 0 1.823-.645 3.385-1.934 4.688-1.289 1.302-2.858 1.953-4.707 1.953zm3.555-3.203l.625-1.015-3.75-2.227V22.36h-1.25v4.961l4.375 2.617z" transform="translate(-340 -445) translate(29 383) translate(194 44)"/>
                </g>
            </g>
        </g>
    </g>
</svg>
