<svg xmlns="http://www.w3.org/2000/svg" width="183" height="183" viewBox="0 0 183 183">
    <defs>
        <filter id="lxn0q97lya" width="240.4%" height="240.4%" x="-70.2%" y="-70.2%" filterUnits="objectBoundingBox">
            <feOffset dy="6" in="SourceAlpha" result="shadowOffsetOuter1"/>
            <feGaussianBlur in="shadowOffsetOuter1" result="shadowBlurOuter1" stdDeviation="12.5"/>
            <feColorMatrix in="shadowBlurOuter1" result="shadowMatrixOuter1" values="0 0 0 0 0 0 0 0 0 0 0 0 0 0 0 0 0 0 0.305015297 0"/>
            <feMerge>
                <feMergeNode in="shadowMatrixOuter1"/>
                <feMergeNode in="SourceGraphic"/>
            </feMerge>
        </filter>
    </defs>
    <g fill="none" fill-rule="evenodd">
        <g>
            <g filter="url(#lxn0q97lya)" transform="translate(-242 -240) translate(289 287)">
                <g fill="#2AB554" stroke="#FFF" stroke-width="3">
                    <circle cx="44.5" cy="44.5" r="46"/>
                </g>
                <path fill="#FFF" fill-rule="nonzero" d="M58.105 67c.384 0 .835-.148 1.353-.444.517-.295 1.086-.739 1.707-1.33.65-.592 1.213-1.131 1.686-1.62.473-.487.857-.923 1.153-1.308.325-.384.606-.724.843-1.02.236-.295.414-.547.532-.754.296-.443.503-.88.621-1.308.118-.429.163-.85.133-1.264-.06-.385-.177-.74-.355-1.065-.177-.325-.414-.591-.71-.798-1.685-1.183-3.267-2.27-4.745-3.26-1.479-.991-2.883-1.885-4.214-2.684-.207-.118-.422-.207-.643-.266-.222-.06-.466-.089-.732-.089-.325 0-.673.052-1.042.156-.37.103-.732.258-1.087.465-.296.148-.776.407-1.442.776-.665.37-1.5.85-2.506 1.442-.857-.62-1.826-1.412-2.905-2.373-1.08-.961-2.27-2.092-3.57-3.393-1.272-1.272-2.388-2.454-3.35-3.548-.96-1.095-1.751-2.085-2.372-2.972.562-1.035 1.02-1.878 1.375-2.528.355-.651.606-1.124.754-1.42.384-.68.599-1.316.643-1.907.044-.591-.081-1.124-.377-1.597-1.153-1.804-2.225-3.445-3.216-4.923-.99-1.479-1.9-2.795-2.728-3.948-.266-.355-.584-.613-.953-.776-.37-.163-.791-.244-1.264-.244-.414 0-.799.052-1.154.155-.355.104-.695.274-1.02.51-.236.178-.517.385-.843.621-.325.237-.665.488-1.02.754-.384.296-.813.673-1.286 1.131-.473.459-1.005 1.013-1.597 1.664-.591.65-1.035 1.234-1.33 1.752-.296.517-.444.983-.444 1.397.06 1.508.384 3.112.976 4.812.591 1.7 1.456 3.482 2.595 5.345 1.138 1.863 2.543 3.815 4.213 5.855 1.671 2.04 3.615 4.17 5.833 6.387 2.218 2.188 4.347 4.125 6.387 5.81 2.04 1.686 3.992 3.09 5.855 4.214 1.863 1.124 3.637 1.989 5.322 2.595 1.686.606 3.297.939 4.835.998h.089zm-.089-2.75c-1.33-.089-2.757-.414-4.28-.976-1.523-.562-3.135-1.375-4.835-2.44-1.7-1.064-3.489-2.38-5.367-3.947-1.877-1.567-3.851-3.386-5.921-5.456-2.07-2.07-3.889-4.043-5.456-5.92-1.567-1.879-2.883-3.668-3.947-5.368-1.065-1.7-1.878-3.304-2.44-4.812-.562-1.508-.872-2.928-.931-4.258.088-.267.288-.592.599-.976.31-.385.731-.843 1.264-1.375.532-.532 1.079-1.043 1.64-1.53.563-.488 1.14-.94 1.73-1.353.09-.06.185-.104.289-.133.103-.03.214-.045.333-.045h.088c.858 1.242 1.752 2.573 2.684 3.992.931 1.42 1.914 2.942 2.95 4.569 0 .118-.023.251-.067.399-.045.148-.111.31-.2.488l-.754 1.353c-.355.635-.813 1.47-1.375 2.506l-.887 1.552 1.065 1.375c.65.946 1.478 1.989 2.483 3.127 1.006 1.139 2.174 2.388 3.504 3.748 1.36 1.36 2.61 2.55 3.748 3.57 1.139 1.02 2.181 1.856 3.127 2.507l1.464.976 1.464-.888c1.035-.561 1.878-1.02 2.528-1.375.65-.354 1.094-.606 1.33-.754.178-.088.34-.155.489-.2.148-.044.28-.066.399-.066 1.153.74 2.447 1.582 3.88 2.529 1.435.946 3.01 2.025 4.725 3.237.03.09.03.185 0 .289-.03.103-.089.214-.178.332-.443.592-.902 1.176-1.375 1.752-.473.577-.976 1.131-1.508 1.664-.532.532-.99.96-1.375 1.286-.384.325-.68.532-.887.621z"/>
            </g>
        </g>
    </g>
</svg>
