<svg xmlns="http://www.w3.org/2000/svg" width="16" height="18" viewBox="0 0 16 18">
    <g fill="none" fill-rule="evenodd" opacity=".6">
        <g fill="#646464" fill-rule="nonzero">
            <g>
                <path d="M346.82 34.32c.453 0 .847-.16 1.18-.48.333-.32.5-.707.5-1.16V21c0-.453-.167-.847-.5-1.18-.333-.333-.727-.5-1.18-.5H346v-1.64h-1.68v1.64h-6.64v-1.64H336v1.64h-.82c-.467 0-.863.167-1.19.5-.327.333-.49.727-.49 1.18v11.68c0 .453.163.84.49 1.16.327.32.723.48 1.19.48h11.64zm0-1.64h-11.64V23.5h11.64v9.18zm-1.64-5.86v-1.64h-1.68v1.64h1.68zm-3.36 0v-1.64h-1.64v1.64h1.64zm-3.32 0v-1.64h-1.68v1.64h1.68z" transform="translate(-363 -353) translate(30 336)"/>
            </g>
        </g>
    </g>
</svg>
