<svg xmlns="http://www.w3.org/2000/svg" width="40" height="40" viewBox="0 0 40 40">
    <g fill="none" fill-rule="evenodd">
        <g fill="#1A87E9" fill-rule="nonzero">
            <g>
                <path d="M42 44.031c.104 0 .208-.006.313-.02.104-.012.195-.045.273-.097l18.789-10.117c.182-.104.332-.26.45-.469.116-.208.175-.43.175-.664 0-.234-.059-.45-.176-.644-.117-.196-.28-.346-.488-.45L42.78 22.156c-.182-.104-.37-.156-.566-.156-.195 0-.384.052-.567.156l-18.75 9.414c-.208.104-.377.254-.507.45-.13.195-.196.41-.196.644 0 .234.059.456.176.664.117.208.28.365.488.469l18.555 10.117c.104.026.202.052.293.078.091.026.189.04.293.04zm0-2.656l-15.86-8.633 16.055-8.086 15.86 8.086L42 41.375zm-.195 11.875c.104 0 .202-.013.293-.04.09-.025.188-.064.293-.116l18.75-10.117c.208-.105.37-.26.488-.47.117-.208.176-.429.176-.663 0-.209-.065-.417-.196-.625-.13-.209-.3-.365-.507-.469l-3.711-1.875-2.657 1.445 3.125 1.602-16.054 8.633-15.86-8.633 3.32-1.68-2.656-1.445-3.945 1.953c-.208.104-.371.254-.488.45-.117.195-.176.41-.176.644 0 .234.059.455.176.664.117.208.267.364.449.469L41.18 53.094c.104.052.208.09.312.117.104.026.209.039.313.039zm0 8.75c.104 0 .202-.013.293-.04.09-.025.188-.064.293-.116l18.75-10.117c.208-.105.37-.26.488-.47.117-.208.176-.429.176-.663 0-.209-.065-.417-.196-.625-.13-.209-.3-.365-.507-.469l-3.516-1.719-2.656 1.446 2.93 1.445-16.055 8.633-15.86-8.633 3.086-1.406-2.656-1.446-3.71 1.68c-.21.104-.372.254-.49.45-.116.195-.175.41-.175.644 0 .234.059.455.176.664.117.208.267.364.449.469L41.18 61.844c.104.052.208.09.312.117.104.026.209.039.313.039z" transform="translate(-42 -155) translate(20 133)"/>
            </g>
        </g>
    </g>
</svg>
