<?xml version="1.0" encoding="UTF-8"?>
<svg xmlns="http://www.w3.org/2000/svg" xmlns:xlink="http://www.w3.org/1999/xlink" width="64pt" height="64pt" viewBox="0 0 64 64" version="1.1">
<g id="surface1">
<path style=" stroke:none;fill-rule:nonzero;fill:rgb(100%,100%,100%);fill-opacity:1;" d="M 63.960938 62.34375 L 62.359375 55.945312 C 61.601562 52.839844 59.300781 50.34375 56.265625 49.332031 L 44.53125 45.425781 C 41.671875 44.230469 40.363281 39.625 40.078125 37.875 C 42.257812 36.0625 43.664062 33.480469 44 30.667969 C 43.953125 30.1875 44.066406 29.703125 44.320312 29.292969 C 44.738281 29.1875 45.078125 28.890625 45.238281 28.492188 C 46.003906 26.632812 46.484375 24.667969 46.664062 22.667969 C 46.667969 22.558594 46.652344 22.449219 46.625 22.34375 C 46.433594 21.566406 45.976562 20.878906 45.332031 20.402344 L 45.332031 13.332031 C 45.332031 9.039062 44.019531 7.273438 42.640625 6.253906 C 42.375 4.183594 40.160156 0 32 0 C 24.761719 0.292969 18.957031 6.09375 18.667969 13.332031 L 18.667969 20.402344 C 18.019531 20.878906 17.5625 21.566406 17.371094 22.34375 C 17.347656 22.449219 17.332031 22.558594 17.332031 22.667969 C 17.511719 24.671875 17.992188 26.636719 18.761719 28.496094 C 18.878906 28.871094 19.179688 29.164062 19.5625 29.261719 C 19.710938 29.335938 19.992188 29.722656 19.992188 30.667969 C 20.332031 33.492188 21.742188 36.074219 23.933594 37.886719 C 23.652344 39.636719 22.351562 44.242188 19.570312 45.402344 L 7.734375 49.332031 C 4.703125 50.34375 2.402344 52.835938 1.640625 55.9375 L 0.0429688 62.339844 C -0.140625 63.050781 0.292969 63.777344 1.007812 63.960938 C 1.113281 63.988281 1.222656 64 1.332031 64 L 62.667969 64 C 63.402344 64 64 63.402344 64 62.667969 C 64 62.558594 63.984375 62.449219 63.960938 62.34375 Z M 63.960938 62.34375 "/>
</g>
</svg>
