<svg xmlns="http://www.w3.org/2000/svg" width="20" height="17" viewBox="0 0 20 17">
    <g fill="none" fill-rule="evenodd" opacity=".5">
        <g fill="#000" fill-rule="nonzero">
            <g>
                <path d="M37.725 39.543c.43 0 .795-.15 1.095-.451.301-.301.451-.666.451-1.096v-13.45c0-.429-.15-.794-.45-1.095-.301-.3-.667-.451-1.096-.451H21.547c-.43 0-.795.15-1.096.451-.3.301-.451.666-.451 1.096v13.45c0 .429.15.794.451 1.095.301.3.666.451 1.096.451h16.178zm-8.036-9.883h-.021c-.215 0-.394-.079-.537-.236l-.043-.022-5.887-4.855h12.87l-5.758 4.812-.043.022-.022.043c-.158.157-.344.236-.559.236zm8.036 8.336H21.547V25.17l6.51 5.371c.444.444.988.666 1.632.666.645 0 1.19-.23 1.633-.687l6.403-5.35v12.826z" transform="translate(-50 -435) translate(30 412)"/>
            </g>
        </g>
    </g>
</svg>
