<svg xmlns="http://www.w3.org/2000/svg" width="19" height="20" viewBox="0 0 19 20">
    <g fill="none" fill-rule="evenodd">
        <g fill="#FFF" fill-rule="nonzero">
            <g>
                <path d="M31.04 41c.097 0 .2-.016.313-.048.37-.145.554-.417.554-.818v-9.459l5.968-6.281c.29-.29.474-.626.554-1.011.08-.401.044-.79-.108-1.168-.153-.377-.397-.673-.734-.89-.337-.217-.706-.325-1.107-.325H21.99c-.401 0-.77.108-1.107.325-.337.217-.582.513-.734.89-.153.377-.189.763-.109 1.156.08.393.257.734.53 1.023l6.57 6.33v6.305c0 .24.089.441.265.602l3.009 3.104c.16.177.369.265.625.265zm-.866-2.936l-1.3-1.396v-6.306c0-.24-.08-.441-.24-.601l-6.836-6.595c-.08-.08-.096-.172-.048-.277.048-.104.129-.156.241-.156H36.48c.112 0 .188.052.228.156.04.105.02.197-.06.277l-6.233 6.546c-.16.16-.241.361-.241.602v7.75z" transform="translate(-358 -864) translate(338 843)"/>
            </g>
        </g>
    </g>
</svg>
