<svg xmlns="http://www.w3.org/2000/svg" width="24" height="24" viewBox="0 0 24 24">
    <g fill="none" fill-rule="evenodd" stroke-linecap="round" stroke-linejoin="round">
        <g fill="#FFF" stroke="#3399EB" stroke-width=".5">
            <g>
                <g>
                    <path d="M14.518 19.5h0c0 1.38-1.12 2.5-2.5 2.5s-2.5-1.12-2.5-2.5h-7.5c-.4-.005-.761-.238-.931-.6-.17-.362-.12-.789.131-1.1l2.5-2.9c.465-.53.746-1.197.8-1.9V7.5c0-4.142 3.358-7.5 7.5-7.5 4.142 0 7.5 3.358 7.5 7.5V13c.081.71.32 1.394.7 2l2.5 2.9c.262.308.32.741.147 1.108-.172.366-.542.597-.947.592h-7.4v-.1zm4.2-3.2c-.747-.941-1.168-2.1-1.2-3.3V7.5c0-3.038-2.462-5.5-5.5-5.5s-5.5 2.462-5.5 5.5V13c-.032 1.2-.453 2.359-1.2 3.3l-1.1 1.2h15.6l-1.1-1.2z" transform="translate(-47 -473) translate(32 300) translate(15 174)"/>
                </g>
            </g>
        </g>
    </g>
</svg>
