<?xml version="1.0" encoding="UTF-8"?>
<svg width="20px" height="22px" viewBox="0 0 20 22" version="1.1" xmlns="http://www.w3.org/2000/svg" xmlns:xlink="http://www.w3.org/1999/xlink">
    <title>Notification</title>
    <g id="Page-1" stroke="none" stroke-width="1" fill="none" fill-rule="evenodd">
        <g id="Menu" transform="translate(-308.000000, -420.000000)" fill="#B4AEB9" fill-rule="nonzero">
            <g id="Notification" transform="translate(309.000000, 421.000000)">
                <path d="M9.03867298,-0.75 L8.96105618,-0.75 C5.29482361,-0.75 1.9333222,1.87790499 1.60719987,5.35703049 C1.58544997,5.60591547 1.57062483,5.86023502 1.56105142,6.1342023 L1.54765143,6.77472501 L1.545,7.349 L1.56136975,7.28353554 C1.41006928,8.0123778 1.06136664,8.68842613 0.551323779,9.24081844 L0.47822938,9.3337128 C0.0415136697,9.98908851 -0.209413755,10.7476856 -0.248254228,11.5309917 L-0.249174545,11.7871203 C-0.271470339,12.8173468 0.0858925584,13.8368119 0.758181561,14.6465012 C1.6698683,15.5974447 2.85002553,16.1646972 4.11666865,16.2850693 C7.35621617,16.6326318 10.6338109,16.6326318 13.8823976,16.284155 C15.1403767,16.1697762 16.3240462,15.6008356 17.1975375,14.6850425 C17.857054,13.9055835 18.2169912,12.9701929 18.2478342,12.0016904 L18.2489037,11.568135 C18.2128087,10.7503665 17.9603243,9.99105872 17.518335,9.33852327 L17.4511886,9.2533705 L17.2872094,9.06282864 C16.9186845,8.60814076 16.6495997,8.08437457 16.4964903,7.52414788 L16.448,7.323 L16.4379437,7.11204236 L16.4329748,6.78054686 L16.4328312,6.05696819 L16.426701,5.75649555 L16.4129889,5.49258129 C16.4099598,5.44940805 16.4065309,5.40608252 16.4026602,5.36176694 C16.0654146,1.87606776 12.7029308,-0.75 9.03867298,-0.75 Z M8.96105618,0.75 L9.03867298,0.75 C11.9740418,0.75 14.6518063,2.84130852 14.9089913,5.49925943 L14.9188792,5.63001417 L14.9305431,5.91582171 C14.9317013,5.96893279 14.932505,6.02570769 14.9330119,6.08753476 L14.9359648,7.0600234 L14.9488563,7.3836473 C14.9509747,7.41866857 14.9533459,7.45403997 14.9559941,7.49042396 L14.9700098,7.59004274 L15.0406203,7.88651174 C15.2498637,8.67076875 15.6256554,9.40239983 16.1429773,10.0331666 L16.293,10.207 L16.276412,10.1797292 C16.5633482,10.6033504 16.7268165,11.0949558 16.7497906,11.6019028 L16.7489037,11.7775992 C16.7662179,12.4828781 16.5295244,13.1530129 16.0816661,13.6836664 C15.489871,14.302115 14.6438493,14.7087624 13.7344344,14.7915194 C10.5801767,15.1297796 7.40985043,15.1297796 4.26761703,14.7927114 C3.34826175,14.7052876 2.50164756,14.2983554 1.87580788,13.6475396 C1.47010746,13.1558061 1.23595167,12.4878194 1.25065259,11.8032219 L1.25082545,11.568135 L1.26983456,11.3633575 C1.31561999,11.0207157 1.43149953,10.673484 1.61111508,10.3537682 L1.707,10.197 L1.65338746,10.2583918 C2.34763737,9.50649757 2.82333708,8.58423328 3.03005795,7.58842074 L3.04571385,7.43597814 L3.05281421,6.44775921 L3.07028693,5.94638709 C3.07821276,5.78822949 3.08835897,5.63795032 3.10108187,5.49228566 C3.34957984,2.84143086 6.02484695,0.75 8.96105618,0.75 Z" id="Path_425"></path>
                <path d="M10.7828104,18.3816523 L11.9515432,19.3218989 C11.7595981,19.5604879 11.5378072,19.7741106 11.3027493,19.9491609 C10.5109603,20.5629193 9.50429886,20.8412254 8.5045784,20.7235858 C7.58094033,20.614899 6.73217609,20.1763372 6.11714026,19.4945749 L5.96834258,19.3191178 L7.14152846,18.3844334 C7.51718479,18.8559452 8.07082153,19.1621951 8.67987766,19.2338642 C9.2898213,19.3056378 9.90337646,19.1360117 10.3950288,18.7550739 C10.4916755,18.6830317 10.5817951,18.6032461 10.6644778,18.5166167 L10.7828104,18.3816523 Z" id="Path_421"></path>
            </g>
        </g>
    </g>
</svg>