<?xml version="1.0" encoding="UTF-8"?>
<svg width="20px" height="20px" viewBox="0 0 20 20" version="1.1" xmlns="http://www.w3.org/2000/svg" xmlns:xlink="http://www.w3.org/1999/xlink">
    <title>Combined Shape</title>
    <g id="Page-1" stroke="none" stroke-width="1" fill="none" fill-rule="evenodd">
        <g id="Menu" transform="translate(-308.000000, -479.000000)" fill="#B4AEB9" fill-rule="nonzero">
            <g id="Group-4">
                <path d="M318,479 C323.522847,479 328,483.477153 328,489 C328,494.522847 323.522847,499 318,499 C312.477153,499 308,494.522847 308,489 C308,483.477153 312.477153,479 318,479 Z M318,480.5 C313.30558,480.5 309.5,484.30558 309.5,489 C309.5,493.69442 313.30558,497.5 318,497.5 C322.69442,497.5 326.5,493.69442 326.5,489 C326.5,484.30558 322.69442,480.5 318,480.5 Z M317.75,485 C318.164214,485 318.5,485.335786 318.5,485.75 L318.5,492.25 C318.5,492.664214 318.164214,493 317.75,493 C317.335786,493 317,492.664214 317,492.25 L317,485.75 C317,485.335786 317.335786,485 317.75,485 Z" id="Combined-Shape"></path>
            </g>
        </g>
    </g>
</svg>