<svg xmlns="http://www.w3.org/2000/svg" width="41" height="42" viewBox="0 0 41 42">
    <g fill="none" fill-rule="evenodd">
        <g fill="#1A87E9" fill-rule="nonzero" stroke="#2694F0" stroke-width=".5">
            <g>
                <g>
                    <path d="M33.66 27.877h-2.59v-2.57c.005-.195-.07-.384-.206-.525-.136-.14-.323-.22-.519-.22h-2.32c-.416-.002-.757.33-.767.745v2.57h-2.632c-.416-.001-.756.33-.766.746v2.32c.01.416.35.748.766.746h2.632v2.653c.01.415.35.747.766.746h2.321c.196-.001.383-.08.52-.221.136-.14.21-.33.205-.525v-2.653h2.59c.196 0 .383-.08.52-.22.136-.14.21-.33.206-.526v-2.32c.004-.196-.07-.385-.206-.525-.137-.14-.324-.22-.52-.221zm-.435 2.652h-2.548c-.416-.001-.757.33-.767.746v2.652h-1.492v-2.652c.005-.196-.07-.385-.206-.525-.136-.14-.323-.22-.52-.22H25.02v-1.493h2.673c.196 0 .383-.08.519-.22.136-.141.21-.33.206-.526v-2.57h1.492v2.57c.01.416.35.747.767.746h2.548v1.492z" transform="translate(-41 -154) translate(20 133) translate(22 22)"/>
                    <path d="M29.228 19.76c-3.298.001-6.386 1.623-8.268 4.343-.159-.049-.309-.096-.45-.142l-.571-1.627c1.765-1.327 2.248-3.4 2.38-4.405 1.187-.323 2.276-1.723 2.713-3.579.235-1.003-.11-1.938-.858-2.325-.207-.107-.437-.163-.67-.164.038-.29.079-.647.12-1.084.098-1.024.16-2.057.16-2.32 0-.185.004-.376.008-.579.031-1.616.07-3.627-1.705-5.43h0C20.494.83 18.239-.062 15.9.003c-2.33.064-4.514 1.062-5.993 2.739l-.138.156c-.892 1-2.114 2.372-2.027 5.883.009.344.336 1.92.676 3.12-.198.02-.39.08-.564.175-.719.39-1.048 1.304-.82 2.274.437 1.859 1.53 3.261 2.72 3.58.142.986.64 3.038 2.359 4.367l-.753 1.555c-.538.17-1.144.337-1.77.513C5.548 25.504 0 27.062 0 32.125v5.295C0 38.67.666 40 1.862 40H29.279c5.553-.033 10.033-4.57 10.02-10.146-.015-5.576-4.518-10.09-10.07-10.094zM10.647 3.685l.142-.16c1.264-1.433 3.139-2.286 5.144-2.341 2.015-.056 3.953.708 5.317 2.094 1.426 1.448 1.394 3.11 1.366 4.577-.004.208-.008.405-.008.602 0 .125-.013.385-.034.716-.285-1.062-.682-2.088-1.23-2.687l-.043-.088c-.102-.203-.31-.33-.537-.326-.227.004-.431.139-.525.346-.948 2.093-1.887 2.01-3.442 1.87-.18-.016-.364-.033-.551-.046-.592-.042-.806.305-.87.456-.192.447.074.93.562 1.503-1.553-.186-1.947-1.327-2.301-2.356-.246-.714-.525-1.523-1.336-1.523-.79-.016-1.55.312-2.082.9-.602.65-.942 1.576-1.131 2.484-.077-.314-.133-.633-.168-.955-.077-3.042.881-4.117 1.727-5.066zm.23 13.7c-.014-.316-.273-.565-.588-.567h-.025c-.862 0-1.772-1.411-2.084-2.74-.12-.51.037-.856.234-.963.222-.12.46.092.551.189.157.166.395.226.612.153.216-.072.371-.263.399-.49.058-.101.084-.218.076-.334-.063-.906 0-3.5 1.029-4.606.293-.328.71-.517 1.149-.523.088.129.206.47.295.728.436 1.265 1.247 3.618 4.843 3.103.225-.032.411-.192.479-.41.067-.218.003-.455-.164-.61-.285-.263-.556-.542-.81-.834 1.382.12 2.793.166 3.959-1.677.736 1.388 1.12 4.147 1.214 5.243.026.305.28.54.585.54.017 0 .034 0 .051-.002.217-.019.406-.157.491-.358.116-.115.294-.24.462-.153.216.112.372.493.252 1.005-.313 1.328-1.222 2.74-2.084 2.74h-.015c-.114-.002-.226.029-.323.09-.167.104-.27.286-.276.483-.025.483-.253 2.953-2.257 4.204l-.01.006c-.78.484-1.752.729-2.889.729-1.133 0-2.103-.25-2.883-.746-1.975-1.253-2.24-3.718-2.273-4.2h0zm1.432 7.212l.815-1.683c.844.397 1.819.598 2.91.598 1.074 0 2.036-.191 2.872-.568l.59 1.682c.06.17.194.304.365.363.146.05.302.101.465.153-.288.544-.526 1.113-.71 1.7-.545.648-1.687 1.638-3.583 1.638-1.293.014-2.532-.525-3.405-1.484-.62-.668-.972-1.413-1.09-1.962.144-.044.285-.089.423-.134.152-.05.278-.159.347-.303h0zM1.176 37.42v-5.294c0-4.168 4.847-5.53 8.733-6.623l.491-.137c.426 1.795 2.343 4.295 5.63 4.295 1.127.014 2.233-.302 3.183-.91-.46 4.129 1.64 8.121 5.295 10.068H1.862c-.375 0-.686-.752-.686-1.399zm28.052 1.399c-4.915 0-8.9-4.002-8.9-8.939 0-4.936 3.985-8.938 8.9-8.938 4.916 0 8.9 4.002 8.9 8.938-.005 4.934-3.987 8.933-8.9 8.939z" transform="translate(-41 -154) translate(20 133) translate(22 22)"/>
                </g>
            </g>
        </g>
    </g>
</svg>
