<?xml version="1.0" encoding="UTF-8"?>
<svg width="20px" height="20px" viewBox="0 0 20 20" version="1.1" xmlns="http://www.w3.org/2000/svg" xmlns:xlink="http://www.w3.org/1999/xlink">
    <title>Group 6</title>
    <g id="Page-1" stroke="none" stroke-width="1" fill="none" fill-rule="evenodd">
        <g id="Menu" transform="translate(-308.000000, -513.000000)" fill="#B4AEB9" fill-rule="nonzero">
            <g id="Group-6" transform="translate(308.000000, 513.000000)">
                <path d="M10.7315102,0.235093035 C11.1615711,0.450123482 11.5102878,0.798840131 11.7253182,1.22890102 L19.2407983,16.2598611 C19.7896632,17.3575911 19.3447203,18.69242 18.2469903,19.241285 C17.9384226,19.3955689 17.5981714,19.4758913 17.2531823,19.4758913 L2.22222222,19.4758913 C0.994922778,19.4758913 6.00013866e-13,18.4809685 6.00013866e-13,17.2536691 C6.00013866e-13,16.90868 0.0803224261,16.5684287 0.234606242,16.2598611 L7.75008627,1.22890102 C8.29895126,0.13117103 9.63378024,-0.313771963 10.7315102,0.235093035 Z M9.98615424,1.72580502 C9.74221425,1.60383502 9.45143988,1.67817277 9.2934636,1.88894079 L9.24079825,1.97425702 L1.72531823,17.0052171 C1.68674727,17.082359 1.66666667,17.1674218 1.66666667,17.2536691 C1.66666667,17.5264023 1.86319462,17.7532339 2.12236041,17.8002739 L2.22222222,17.8092246 L17.2531823,17.8092246 C17.3394295,17.8092246 17.4244924,17.789144 17.5016343,17.7505731 C17.7455743,17.6286031 17.8605687,17.3513809 17.78674,17.0985391 L17.7500863,17.0052171 L10.2346062,1.97425702 C10.194288,1.8936206 10.1351702,1.82442322 10.0627732,1.77218531 L9.98615424,1.72580502 Z" id="Triangle"></path>
                <path d="M10.7435239,13.9267689 L10.7435239,15.7466667 L8.88888889,15.7466667 L8.88888889,13.9267689 L10.7435239,13.9267689 Z M8.95006618,6.66666667 L10.6476093,6.66666667 L10.5038177,13.477161 L9.09385781,13.477161 L8.95006618,6.66666667 Z M9.85222222,7.44333333 L9.74444444,7.44333333 L9.79888889,10.0111111 L9.85222222,7.44333333 Z" id="!"></path>
            </g>
        </g>
    </g>
</svg>