<?xml version="1.0" encoding="UTF-8"?>
<svg width="22px" height="22px" viewBox="0 0 22 22" version="1.1" xmlns="http://www.w3.org/2000/svg" xmlns:xlink="http://www.w3.org/1999/xlink">
    <title>Home</title>
    <g id="Page-1" stroke="none" stroke-width="1" fill="none" fill-rule="evenodd">
        <g id="Menu" transform="translate(-307.000000, -390.000000)" fill="#B4AEB9" fill-rule="nonzero">
            <g id="Home" transform="translate(308.000000, 391.000000)">
                <path d="M7.88797468,18.7714023 C7.88797468,19.8161014 7.07423372,20.6691881 6.04534508,20.744583 L5.89696203,20.75 L3.97291139,20.75 C1.71296379,20.75 -0.134910286,18.98841 -0.244827404,16.7710082 L-0.25,16.5618312 L-0.25,7.83994999 C-0.240970689,6.9296926 0.160517503,6.07100253 0.832745601,5.48732081 L7.54754208,0.0975427961 C8.91621734,-0.987311984 10.8368802,-1.03070618 12.2512629,-0.0314087061 L12.4253473,0.0989342524 L18.9931876,5.33697777 C19.7175456,5.89017719 20.1687295,6.72058758 20.2402767,7.62732462 L20.25,7.8378351 L20.25,16.5618312 C20.25,18.8064461 18.4706092,20.6360547 16.237711,20.7448789 L16.0270886,20.75 L14.0856357,20.75 C13.0622445,20.7260458 12.2326809,19.933343 12.1562522,18.9325378 L12.1505063,18.7809263 L12.1505063,15.70467 C12.1505063,15.3702844 11.8990204,15.0909157 11.5684574,15.0428849 L11.4670886,15.0355921 L8.58599586,15.0355755 C8.24300283,15.0378545 7.96265085,15.2864066 7.91451867,15.6066281 L7.90721519,15.70467 L7.90721519,18.7714023 L7.88797468,18.7714023 Z M6.40721519,18.7714023 L6.40721519,15.7046871 C6.4071892,14.5626113 7.29498796,13.6280988 8.42541957,13.5420122 L8.58101266,13.5355921 L11.4670886,13.5355921 C12.6189223,13.5355921 13.5649308,14.4225581 13.645015,15.5495607 L13.6505063,15.70467 L13.6505063,18.7811343 C13.6504439,19.0061259 13.8139928,19.1969307 14.0228316,19.2406995 L14.103038,19.25 L16.0270886,19.25 C17.4746858,19.25 18.6559269,18.1356957 18.7446502,16.7316542 L18.7500705,16.5618312 L18.7500705,7.84811745 C18.7437762,7.38905342 18.5492552,6.9542809 18.205975,6.63397312 L18.0703489,6.51939935 L11.4918458,1.2730595 C10.6637327,0.616671106 9.50526283,0.578060023 8.64122203,1.15488319 L8.48281726,1.27024908 L1.9149802,6.54032889 C1.54602876,6.81989741 1.31156649,7.23402505 1.26047032,7.67917565 L1.25,7.84735911 L1.25,16.5618312 C1.25,17.9877324 2.37556431,19.1568791 3.80053112,19.2447041 L3.97291139,19.25 L5.89696203,19.25 C6.13950195,19.25 6.3388204,19.0793548 6.38011907,18.8569838 L6.38797468,18.7714023 L6.40721519,18.7714023 Z" id="Path"></path>
            </g>
        </g>
    </g>
</svg>