<?xml version="1.0" encoding="UTF-8"?>
<svg width="20px" height="21px" viewBox="0 0 20 21" version="1.1" xmlns="http://www.w3.org/2000/svg" xmlns:xlink="http://www.w3.org/1999/xlink">
    <title>Calendar</title>
    <g id="Page-1" stroke="none" stroke-width="1" fill="none" fill-rule="evenodd">
        <g id="Menu" transform="translate(-308.000000, -361.000000)" fill="#B4AEB9" fill-rule="nonzero">
            <g id="Calendar" transform="translate(309.000000, 361.000000)">
                <polygon id="Line_200" points="17.9165888 6.65425532 17.9165888 8.15425532 0.0926400664 8.15425532 0.0926400664 6.65425532"></polygon>
                <polygon id="Line_207" points="13.7937213 -2.26485497e-14 13.7937213 3.29078014 12.2937213 3.29078014 12.2937213 -2.26485497e-14"></polygon>
                <polygon id="Line_208" points="5.71550756 -2.26485497e-14 5.71550756 3.29078014 4.21550756 3.29078014 4.21550756 -2.26485497e-14"></polygon>
                <path d="M13.2382655,0.82919622 L4.77096342,0.82919622 C1.3716536,0.82919622 -0.75,2.84604712 -0.75,6.22222222 L-0.75,15.2718676 C-0.75,18.6937708 1.37154192,20.75 4.77096342,20.75 L13.2290015,20.75 C16.6324909,20.75 18.7500725,18.7281999 18.7500725,15.3475177 L18.7500725,6.22222222 C18.7603632,2.8452675 16.6454564,0.82919622 13.2382655,0.82919622 Z M4.77096342,2.32919622 L13.2382655,2.32919622 C15.8318585,2.32919622 17.2577782,3.68847857 17.2500697,6.21992914 L17.2500697,15.3475177 C17.2500697,17.8838509 15.8191908,19.25 13.2290015,19.25 L4.77096342,19.25 C2.18965446,19.25 0.75,17.854666 0.75,15.2718676 L0.75,6.22222222 C0.75,3.69194537 2.18356241,2.32919622 4.77096342,2.32919622 Z" id="Path"></path>
            </g>
        </g>
    </g>
</svg>