<?xml version="1.0" encoding="UTF-8"?>
<svg width="23px" height="23px" viewBox="0 0 23 23" version="1.1" xmlns="http://www.w3.org/2000/svg" xmlns:xlink="http://www.w3.org/1999/xlink">
    <title>streamline-icon-interface-logout@140x140 (1)</title>
    <g id="Page-1" stroke="none" stroke-width="1" fill="none" fill-rule="evenodd">
        <g id="Menu" transform="translate(-309.000000, -546.000000)" fill="#B4AEB9" fill-rule="nonzero">
            <g id="streamline-icon-interface-logout@140x140-(1)" transform="translate(310.000000, 547.000000)">
                <path d="M13.0666667,-0.75 C14.3263334,-0.75 15.3604989,0.220891627 15.4444924,1.4532216 L15.45,1.61538462 L15.45,5.65384615 C15.45,6.06805972 15.1142136,6.40384615 14.7,6.40384615 C14.3203042,6.40384615 14.006509,6.12169227 13.9568466,5.75561671 L13.95,5.65384615 L13.95,1.61538462 C13.95,1.17593328 13.6145924,0.810407578 13.1778327,0.756773158 L13.0666667,0.75 L1.63333333,0.75 C1.1813069,0.75 0.811128083,1.08172175 0.756852209,1.50719961 L0.75,1.61538462 L0.75,19.3846154 C0.75,19.8240667 1.08540755,20.1895924 1.52216733,20.2432268 L1.63333333,20.25 L13.0666667,20.25 C13.5186931,20.25 13.8888719,19.9182782 13.9431478,19.4928004 L13.95,19.3846154 L13.95,15.3461538 C13.95,14.9319403 14.2857864,14.5961538 14.7,14.5961538 C15.0796958,14.5961538 15.393491,14.8783077 15.4431534,15.2443833 L15.45,15.3461538 L15.45,19.3846154 C15.45,20.638338 14.4683207,21.6614681 13.2296326,21.7445523 L13.0666667,21.75 L1.63333333,21.75 C0.373666576,21.75 -0.66049885,20.7791084 -0.744492381,19.5467784 L-0.75,19.3846154 L-0.75,1.61538462 C-0.75,0.361661998 0.231679311,-0.661468071 1.47036737,-0.744552308 L1.63333333,-0.75 L13.0666667,-0.75 Z M21,9.75 C21.4142136,9.75 21.75,10.0857864 21.75,10.5 C21.75,10.8796958 21.4678461,11.193491 21.1017706,11.2431534 L21,11.25 L9.8,11.25 C9.38578644,11.25 9.05,10.9142136 9.05,10.5 C9.05,10.1203042 9.33215388,9.80650904 9.69822944,9.75684662 L9.8,9.75 L21,9.75 Z" id="Combined-Shape"></path>
                <path d="M18.4119065,7.83055755 C18.6978105,7.58549699 19.1151034,7.59331888 19.3911413,7.83305062 L19.4694425,7.91190647 L21.5694425,10.3619065 C21.7834366,10.6115663 21.8072137,10.9667749 21.6407738,11.23989 L21.5694425,11.3380935 L19.4694425,13.7880935 C19.1998758,14.1025879 18.7264009,14.1390091 18.4119065,13.8694425 C18.1260025,13.6243819 18.0699111,13.210802 18.2646049,12.9013467 L18.3305575,12.8119065 L20.011,10.85 L18.3305575,8.88809353 C18.085497,8.60218955 18.0933189,8.18489663 18.3330506,7.90885865 L18.4119065,7.83055755 Z" id="Path"></path>
            </g>
        </g>
    </g>
</svg>