<?xml version="1.0" encoding="UTF-8"?>
<svg width="22px" height="22px" viewBox="0 0 22 22" version="1.1" xmlns="http://www.w3.org/2000/svg" xmlns:xlink="http://www.w3.org/1999/xlink">
    <title>Combined Shape</title>
    <g id="Page-1" stroke="none" stroke-width="1" fill="none" fill-rule="evenodd">
        <g id="Menu" transform="translate(-311.000000, -505.000000)" fill="#B4AEB9" fill-rule="nonzero">
            <g id="streamline-icon-interface-logout@140x140-(1)" transform="translate(311.000000, 505.000000)">
                <path d="M12.1111111,0.2 C13.1163278,0.2 13.9402801,0.976084888 14.0164724,1.9617589 L14.0222222,2.11111111 L14.0222222,6.38444444 C14.0222222,6.82627224 13.66405,7.18444444 13.2222222,7.18444444 C12.8143812,7.18444444 12.4778206,6.8792563 12.4284554,6.48479474 L12.4222222,6.38444444 L12.4222222,2.11111111 C12.4222222,1.96383518 12.3198873,1.84046084 12.182446,1.80821667 L12.1111111,1.8 L2.11111111,1.8 C1.96383518,1.8 1.84046084,1.90233491 1.80821667,2.03977619 L1.8,2.11111111 L1.8,19.8888889 C1.8,20.0361648 1.90233491,20.1595392 2.03977619,20.1917833 L2.11111111,20.2 L12.1111111,20.2 C12.258387,20.2 12.3817614,20.0976651 12.4140056,19.9602238 L12.4222222,19.8888889 L12.4222222,15.6155556 C12.4222222,15.1737278 12.7803944,14.8155556 13.2222222,14.8155556 C13.6300633,14.8155556 13.9666238,15.1207437 14.0159891,15.5152053 L14.0222222,15.6155556 L14.0222222,19.8888889 C14.0222222,20.8941056 13.2461373,21.7180579 12.2604633,21.7942502 L12.1111111,21.8 L2.11111111,21.8 C1.10589442,21.8 0.281942074,21.0239151 0.205749825,20.0382411 L0.2,19.8888889 L0.2,2.11111111 C0.2,1.10589442 0.976084888,0.281942074 1.9617589,0.205749825 L2.11111111,0.2 L12.1111111,0.2 Z M18.0748756,7.09788283 L18.1616414,7.17169192 L21.2222258,10.2312692 C21.5559379,10.3275676 21.8,10.6352819 21.8,11 C21.8,11.3652031 21.5552883,11.6732508 21.2208939,11.7691139 L18.1616414,14.8283081 C17.8882744,15.1016751 17.4450589,15.1016751 17.1716919,14.8283081 C16.9256616,14.5822778 16.9010586,14.1986702 17.0978828,13.9251244 L17.1716919,13.8383586 L19.209,11.8 L7.66666667,11.8 C7.22483887,11.8 6.86666667,11.4418278 6.86666667,11 C6.86666667,10.592159 7.17185481,10.2555984 7.56631637,10.2062331 L7.66666667,10.2 L19.209,10.2 L17.1716919,8.16164141 C16.9256616,7.91561111 16.9010586,7.53200354 17.0978828,7.25845778 L17.1716919,7.17169192 C17.4177222,6.92566162 17.8013298,6.90105859 18.0748756,7.09788283 Z" id="Combined-Shape"></path>
            </g>
        </g>
    </g>
</svg>