<?xml version="1.0" encoding="UTF-8"?>
<svg width="21px" height="21px" viewBox="0 0 21 21" version="1.1" xmlns="http://www.w3.org/2000/svg" xmlns:xlink="http://www.w3.org/1999/xlink">
    <title>path</title>
    <g id="Page-1" stroke="none" stroke-width="1" fill="none" fill-rule="evenodd" opacity="0.496">
        <g id="Menu" transform="translate(-52.000000, -872.000000)" fill="#817889" fill-rule="nonzero">
            <g id="Group-5" transform="translate(52.000000, 870.000000)">
                <g id="icon" transform="translate(0.000000, 2.000000)">
                    <path d="M9.10359993,9.29124993 L12.5510999,5.84374999 C12.7808663,5.61420685 12.8707195,5.27952131 12.7868125,4.96576616 C12.7029055,4.65201102 12.4579859,4.40685315 12.1443125,4.32264116 C11.8306391,4.23842917 11.4958663,4.32795686 11.2660999,4.55750001 L6.26609998,9.55749992 C6.09534466,9.72796745 5.9993911,9.95934384 5.9993911,10.2006249 C5.9993911,10.441906 6.09534466,10.6732824 6.26609998,10.8437499 L11.2660999,15.8437498 C11.4958663,16.0735162 11.8307582,16.1632503 12.144625,16.0791499 C12.4584918,15.9950496 12.7036496,15.7498917 12.78775,15.4360249 C12.8718503,15.1221581 12.7821163,14.7872663 12.5523499,14.5574998 L9.10359993,11.1087499 L19.1860998,11.1087499 C19.6883337,11.1087499 20.0954747,10.7016088 20.0954747,10.1993749 C20.0954747,9.69714099 19.6883337,9.28999995 19.1860998,9.28999993 L9.10359993,9.29124993 Z M10.9998499,2.01875005 C11.3247383,2.01875006 11.6249475,1.84542417 11.7873917,1.56406256 C11.9498359,1.28270096 11.9498359,0.936049171 11.7873917,0.654687569 C11.6249475,0.373325967 11.3247383,0.199999738 10.9998499,0.199999738 L2.36735004,0.199999738 C1.76354935,0.199668233 1.18438343,0.439380169 0.7574318,0.8663318 C0.330480169,1.29328343 0.0907682326,1.87244935 0.0910997384,2.47625004 L0.0910997384,17.9237498 C0.0910997384,19.1808879 1.1102119,20.1999997 2.36735004,20.1999997 L10.9998499,20.1999997 C11.5020838,20.1999997 11.9092249,19.7928587 11.9092249,19.2906248 C11.9092249,18.7883908 11.5020838,18.3812498 10.9998499,18.3812498 L2.36735004,18.3812498 C2.24579707,18.3815819 2.12910877,18.3335278 2.04304034,18.2476939 C1.9569719,18.16186 1.9085996,18.0453032 1.90860005,17.9237498 L1.90860005,2.47625004 C1.9085996,2.35469661 1.9569719,2.23813987 2.04304034,2.15230595 C2.12910877,2.06647204 2.24579707,2.01841794 2.36735004,2.01875005 L10.9998499,2.01875005 Z" id="path"></path>
                </g>
            </g>
        </g>
    </g>
</svg>