<?xml version="1.0" encoding="UTF-8"?>
<svg width="17px" height="22px" viewBox="0 0 17 22" version="1.1" xmlns="http://www.w3.org/2000/svg" xmlns:xlink="http://www.w3.org/1999/xlink">
    <title>Profile</title>
    <g id="Page-1" stroke="none" stroke-width="1" fill="none" fill-rule="evenodd">
        <g id="Menu" transform="translate(-310.000000, -450.000000)" fill="#B4AEB9" fill-rule="nonzero">
            <g id="Profile" transform="translate(310.000000, 450.000000)">
                <path d="M8.57896359,0.75 C5.52591579,0.75 3.05093153,3.22498426 3.05093153,6.27803206 C3.05093153,9.33107986 5.52591579,11.8060641 8.57896359,11.8060641 C11.6320114,11.8060641 14.1069957,9.33107986 14.1069957,6.27803206 C14.1069957,3.22498426 11.6320114,0.75 8.57896359,0.75 Z M8.57896359,2.25 C10.8035843,2.25 12.6069957,4.05341138 12.6069957,6.27803206 C12.6069957,8.50265274 10.8035843,10.3060641 8.57896359,10.3060641 C6.35434291,10.3060641 4.55093153,8.50265274 4.55093153,6.27803206 C4.55093153,4.05341138 6.35434291,2.25 8.57896359,2.25 Z" id="Ellipse_736"></path>
                <path d="M6.31653882,14.0343415 C5.50726941,14.090281 4.68925821,14.2053138 3.88239186,14.3774994 C2.3250565,14.6969289 1.0791622,15.3351375 0.54887541,16.3957112 C0.348874169,16.8104702 0.248313801,17.2545636 0.249909958,17.7041683 C0.249410466,18.1506078 0.349156731,18.5952616 0.541985694,19.0020397 C1.05116116,20.0504151 2.15193537,20.6437072 3.63832069,20.9725786 L3.90458494,21.0279086 C4.68954523,21.204262 5.50780293,21.3229896 6.33153748,21.378724 C6.37363228,21.3910057 6.45066507,21.402776 6.54497615,21.4122316 L6.75140351,21.4275221 L6.96186128,21.4342252 L7.19681255,21.4353548 C8.38080955,21.5002075 9.60823626,21.481324 10.8299594,21.3777544 C11.4810237,21.3334015 12.1364753,21.2486175 12.7864483,21.1244004 L13.2727465,21.0238596 C14.8778127,20.7085693 16.0796771,20.1089754 16.6062234,19.0032283 C16.996598,18.1822755 16.996598,17.229624 16.6064012,16.4090448 C16.0811802,15.3060806 14.8945995,14.7114688 13.2605643,14.376282 C12.6194768,14.2399941 11.9680149,14.1391553 11.3119057,14.0747536 L10.832235,14.0343415 C9.32989546,13.9023737 7.81887839,13.9023737 6.31653882,14.0343415 Z M10.7009782,15.5285877 L10.7141714,15.5296294 C11.4671694,15.5824034 12.2155682,15.6876469 12.9539169,15.8445935 C14.1676551,16.093585 14.991351,16.5063503 15.2519326,17.0535716 C15.4481468,17.4662078 15.4481468,17.9456917 15.2517548,18.3587015 C15.0082702,18.870019 14.2684992,19.2650705 13.1992874,19.5064811 L12.965189,19.5558467 C12.2123244,19.7231211 11.4663995,19.8309305 10.7155391,19.8821755 C9.55049866,19.9808384 8.39236197,19.9986559 7.23714639,19.9364401 L6.82757628,19.9294575 C6.71387776,19.9236762 6.61805695,19.9127599 6.52925432,19.8949994 C5.82609229,19.8421502 5.19336513,19.7585392 4.57902,19.6372743 L4.21220235,19.5599418 C2.99469456,19.3223288 2.16374176,18.9077777 1.89432693,18.3531001 C1.80005524,18.1541526 1.74969359,17.9296479 1.74996327,17.70233 C1.74915086,17.4763672 1.79884753,17.2568974 1.89531017,17.0567673 C2.15726691,16.5330302 3.03786343,16.0819451 4.18962595,15.845686 C4.93329683,15.6870104 5.68134151,15.5818166 6.43400406,15.5296711 C7.86279883,15.4042917 9.28597502,15.4042917 10.7009782,15.5285877 Z" id="Path_33945"></path>
            </g>
        </g>
    </g>
</svg>