<svg xmlns="http://www.w3.org/2000/svg" width="17" height="20" viewBox="0 0 17 20">
    <g fill="none" fill-rule="evenodd">
        <g fill="#666" fill-rule="nonzero">
            <g>
                <path d="M387.923 22.02v-1.01l-1.971-2.02v-5.48c0-1.507-.473-2.845-1.418-4.015-.946-1.17-2.14-1.93-3.582-2.283V6.49c0-.416-.136-.769-.409-1.057-.272-.289-.633-.433-1.081-.433-.45 0-.818.144-1.106.433-.257.288-.385.64-.385 1.057v.722c-1.442.352-2.636 1.113-3.582 2.283-.945 1.17-1.418 2.508-1.418 4.015v5.48L371 21.01v1.01h16.923zm-2.692-1.54h-11.539l.385-.384.433-.48V13.51c0-1.154.352-2.188 1.057-3.101.705-.914 1.603-1.483 2.693-1.707l1.153-.24h.097c.224 0 .609.08 1.153.24 1.09.224 1.988.793 2.693 1.707.705.913 1.057 1.947 1.057 3.1v6.106l.433.481.385.385zM379.46 25c.545 0 1.01-.2 1.395-.601.384-.4.577-.873.577-1.418h-3.943c0 .545.193 1.017.577 1.418.385.4.85.601 1.395.601z" transform="translate(-391 -56) translate(20 51)"/>
            </g>
        </g>
    </g>
</svg>
