<svg xmlns="http://www.w3.org/2000/svg" width="16" height="21" viewBox="0 0 16 21">
    <g fill="none" fill-rule="evenodd" opacity=".5">
        <g fill="#000" fill-rule="nonzero">
            <g>
                <path d="M35.818 41.288c.424 0 .782-.155 1.075-.464.293-.309.439-.675.439-1.098V29.08c0-1.09-.203-2.132-.61-3.125-.39-.977-.936-1.84-1.636-2.588-.7-.732-1.514-1.31-2.441-1.733-.944-.423-1.937-.635-2.979-.635s-2.034.212-2.979.635c-.911.423-1.72 1.005-2.429 1.745-.708.74-1.257 1.6-1.648 2.576-.407.993-.61 2.035-.61 3.125v10.645c0 .423.146.789.44 1.098.292.31.642.464 1.05.464h12.328zm-.024-11.548H23.538v-.659c0-.895.163-1.75.488-2.563.326-.782.773-1.473 1.343-2.076.57-.602 1.205-1.058 1.904-1.367h.025l.024-.024c.733-.342 1.514-.513 2.344-.513.814 0 1.595.171 2.344.513.732.325 1.383.79 1.953 1.391.57.603 1.009 1.294 1.318 2.076.342.813.513 1.668.513 2.563v.66zm0 10.01H23.538v-8.447h12.256v8.447zm-6.128-2.246c.195 0 .366-.07.513-.208.146-.138.22-.305.22-.5V34.77c.39-.26.585-.635.585-1.124 0-.358-.126-.667-.378-.927s-.562-.39-.928-.39-.68.13-.94.39c-.26.26-.39.57-.39.927 0 .489.203.863.61 1.124v2.026c0 .195.07.362.208.5.138.139.305.208.5.208z" transform="translate(-52 -525) translate(30 504)"/>
            </g>
        </g>
    </g>
</svg>
