<svg xmlns="http://www.w3.org/2000/svg" width="103" height="120" viewBox="0 0 103 120">
    <g fill="none" fill-rule="evenodd">
        <g fill="red" fill-rule="nonzero">
            <path d="M259.429 287c3.549 0 6.428-2.88 6.428-6.429V203.43c0-3.55-2.076-8.505-4.553-10.983l-20.893-20.892c-2.478-2.478-7.433-4.554-10.982-4.554h-60c-3.55 0-6.429 2.88-6.429 6.429V280.57c0 3.55 2.88 6.429 6.429 6.429h90zm-2.143-8.571H171.57V175.57H223v27.858c0 3.549 2.88 6.428 6.429 6.428h27.857v68.572zm-.536-77.143h-25.179v-25.179c1.139.402 2.277 1.005 2.746 1.473l20.96 20.96c.469.469 1.071 1.607 1.473 2.746zm-72.254 68.571c4.017 0 9.308-5.759 16.205-17.544 7.165-2.478 16.942-4.554 26.25-5.559 5.625 2.947 12.12 4.889 16.406 4.889 3.55 0 4.554-1.34 4.755-2.545v-.067c.067-.067.134-.2.2-.268.737-1.607.335-2.812-.133-3.482-1.675-2.745-7.366-3.281-11.853-3.281-2.41 0-5.022.134-7.835.469-2.076-1.206-3.95-2.41-5.625-3.75-3.95-3.215-7.433-8.906-9.777-15.938.804-4.62.87-8.638.938-12.857v-2.009c0-.2 0-.335-.067-.536.134-.133.2-.334.268-.535.401-2.143.2-3.616-.603-4.554-.536-.67-1.34-1.004-2.344-1.004h-1.473c-1.34 0-2.344 1.004-2.812 2.678-1.206 4.42-.536 11.92 1.607 19.219-1.607 5.625-3.951 11.518-6.965 17.545-2.678 5.424-5.089 9.776-7.165 13.192 0-.067-.067-.201-.134-.268-.335-.536-1.004-.737-1.54-.402-8.303 4.353-11.92 9.509-12.59 12.59-.2 1.339.068 2.075.403 2.41.089.09.148.179.238.248l1.77.89c.603.335 1.206.47 1.876.47zm26.317-56.384c-.536-3.75-.536-6.964.133-8.84 0-.066.067-.133.067-.267.402.469.804 1.205.87 2.41.068.135.068.269.135.336-.134.2-.201.334-.268.535-.134.804-.335 1.741-.469 2.88-.134.87-.268 1.875-.468 2.946zm-8.17 35.424c1.004-1.808 2.009-3.683 3.013-5.558 2.411-4.754 4.286-9.107 5.558-13.192 2.277 4.889 5.224 8.907 8.505 11.786.602.536 1.272 1.005 1.942 1.54-6.563 1.206-13.125 3.08-19.018 5.424zm42.187-.803c-2.009 0-5.022-.67-8.303-1.875 6.87 0 8.816 1.127 9.3 1.539l.075.068c.067.067.134.134.134.2-.268.068-.603.068-1.206.068zm-60.535 18.147c1.004-2.277 4.151-6.696 9.174-10.58-4.286 6.763-7.165 9.643-9.174 10.58z" transform="translate(-163 -167)"/>
        </g>
    </g>
</svg>
