<svg xmlns="http://www.w3.org/2000/svg" width="20" height="20" viewBox="0 0 20 20">
    <g fill="none" fill-rule="evenodd">
        <g fill="#7A7A7A" fill-rule="nonzero">
            <g>
                <path d="M384.875 25c.86 0 1.595-.306 2.207-.918.612-.612.918-1.348.918-2.207 0-.86-.306-1.595-.918-2.207-.612-.612-1.348-.918-2.207-.918-.52 0-1 .114-1.436.342-.436.228-.79.537-1.064.928l-8.242-4.2c.039-.13.068-.263.088-.4.02-.137.029-.277.029-.42 0-.182-.016-.358-.049-.527-.032-.17-.075-.332-.127-.489l8.281-4.023c.287.39.648.703 1.084.937.437.235.915.352 1.436.352.86 0 1.595-.306 2.207-.918.612-.612.918-1.348.918-2.207 0-.86-.306-1.595-.918-2.207-.612-.612-1.348-.918-2.207-.918-.86 0-1.595.306-2.207.918-.612.612-.918 1.348-.918 2.207 0 .117.007.234.02.352.013.117.032.234.058.351l-8.398 4.082c-.287-.325-.629-.58-1.026-.762-.397-.182-.823-.273-1.279-.273-.86 0-1.595.306-2.207.918-.612.612-.918 1.348-.918 2.207 0 .86.306 1.595.918 2.207.612.612 1.348.918 2.207.918.495 0 .954-.107 1.377-.322.423-.215.778-.505 1.064-.87l8.282 4.22c-.04.117-.065.234-.078.35-.013.118-.02.242-.02.372 0 .86.306 1.595.918 2.207.612.612 1.348.918 2.207.918zm0-15c-.52 0-.964-.182-1.328-.547-.365-.364-.547-.807-.547-1.328 0-.52.182-.964.547-1.328.364-.365.807-.547 1.328-.547.52 0 .964.182 1.328.547.365.364.547.807.547 1.328 0 .52-.182.964-.547 1.328-.364.365-.807.547-1.328.547zm-13.75 6.875c-.52 0-.964-.182-1.328-.547-.365-.364-.547-.807-.547-1.328 0-.52.182-.964.547-1.328.364-.365.807-.547 1.328-.547.52 0 .964.182 1.328.547.365.364.547.807.547 1.328 0 .52-.182.964-.547 1.328-.364.365-.807.547-1.328.547zm13.75 6.875c-.52 0-.964-.182-1.328-.547-.365-.364-.547-.807-.547-1.328 0-.52.182-.964.547-1.328.364-.365.807-.547 1.328-.547.52 0 .964.182 1.328.547.365.364.547.807.547 1.328 0 .52-.182.964-.547 1.328-.364.365-.807.547-1.328.547z" transform="translate(-388 -56) translate(20 51)"/>
            </g>
        </g>
    </g>
</svg>
