<svg xmlns="http://www.w3.org/2000/svg" width="60" height="60" viewBox="0 0 60 60">
    <g fill="none" fill-rule="evenodd">
        <g>
            <g>
                <g transform="translate(-184 -353) translate(36 316) translate(148 37)">
                    <circle cx="30" cy="30" r="30" fill="#2AB554"/>
                    <path fill="#FFF" fill-rule="nonzero" d="M37.308 42c.472 0 .899-.129 1.28-.386s.645-.598.79-1.02l3.459-8.08c.109-.277.163-.562.163-.856v-2.206h-.054l.054-.11c0-.625-.227-1.159-.68-1.6-.455-.441-.99-.662-1.608-.662h-7.19l1.117-5.267v-.386c0-.478-.154-.873-.463-1.186L32.951 19l-7.462 7.584c-.454.496-.68 1.039-.68 1.627v11.472c0 .626.226 1.168.68 1.628.454.46.99.689 1.607.689h10.212zm-14.733 0V28.211H18V42h4.575z"/>
                </g>
            </g>
        </g>
    </g>
</svg>
