<svg xmlns="http://www.w3.org/2000/svg" width="41" height="40" viewBox="0 0 41 40">
    <g fill="none" fill-rule="evenodd">
        <g fill="#1A87E9" fill-rule="nonzero">
            <g>
                <g>
                    <path d="M23.674 11.144c0-.441-.36-.8-.803-.8-.443 0-.802.359-.802.8 0 2.948 2.205 5.39 5.059 5.781v2.166h-2.5c-.444 0-.803.358-.803.8 0 .44.36.799.802.799h6.605c.444 0 .803-.358.803-.8 0-.44-.36-.799-.803-.799h-2.5v-2.166c2.855-.39 5.061-2.833 5.061-5.781 0-.441-.36-.8-.802-.8-.443 0-.803.359-.803.8 0 2.337-1.91 4.239-4.258 4.239-2.347 0-4.256-1.902-4.256-4.239z" transform="translate(-41 -258) translate(20 236) translate(21 22)"/>
                    <path d="M31.034 10.522V6.03c0-1.424-1.237-2.582-2.758-2.582s-2.759 1.158-2.759 2.582v4.492c0 1.423 1.238 2.581 2.759 2.581s2.758-1.158 2.758-2.58zm-3.83 0V6.03c0-.553.48-1.003 1.072-1.003.59 0 1.072.45 1.072 1.003v4.492c0 .553-.481 1.003-1.072 1.003-.591 0-1.072-.45-1.072-1.003zM12.529 23.448h3.908c.444 0 .804-.308.804-.69 0-.38-.36-.689-.804-.689h-3.908c-.445 0-.805.309-.805.69 0 .38.36.69.805.69zM6.99 23.448h1.882c.432 0 .783-.308.783-.69 0-.38-.35-.689-.783-.689H6.99c-.432 0-.783.309-.783.69 0 .38.35.69.783.69zM7.013 27.586h16.32c.444 0 .805-.309.805-.69 0-.38-.36-.69-.806-.69H7.012c-.444 0-.805.31-.805.69 0 .381.36.69.806.69zM27.46 30.345h-7.335c-.45 0-.815.309-.815.69 0 .38.365.69.815.69h7.336c.45 0 .815-.31.815-.69 0-.381-.365-.69-.815-.69zM15.074 30.345H6.995c-.435 0-.788.309-.788.69 0 .38.353.69.788.69h8.079c.435 0 .788-.31.788-.69 0-.381-.353-.69-.788-.69zM20 4.828c.176 0 .352-.068.486-.202l.002-.002c.27-.27.268-.705 0-.974-.27-.27-.707-.269-.976 0-.269.27-.269.706 0 .976.135.134.311.202.487.202z" transform="translate(-41 -258) translate(20 236) translate(21 22)"/>
                    <path d="M37.066 3.64c-1.89-1.895-4.283-3.105-6.919-3.5-2.583-.388-5.173.035-7.488 1.222-.39.2-.545.68-.345 1.072.2.392.679.547 1.07.347 4.184-2.147 9.231-1.349 12.558 1.986 4.212 4.222 4.212 11.092 0 15.315-2.04 2.045-4.753 3.171-7.64 3.171-2.886 0-5.599-1.126-7.639-3.171-3.326-3.335-4.122-8.394-1.981-12.589.2-.392.045-.872-.346-1.072-.39-.2-.87-.045-1.07.346-1.183 2.32-1.605 4.916-1.219 7.506.172 1.152.499 2.257.969 3.294H9.097C4.081 17.567 0 21.66 0 26.69c0 2.288.857 4.479 2.412 6.17 1.384 1.504 3.204 2.49 5.185 2.822l.102 3.545c.008.29.172.55.428.684.115.06.241.09.366.09.153 0 .306-.044.438-.132l6.141-4.06h10.114c5.017 0 9.098-4.09 9.098-9.119 0-1.067-.183-2.105-.542-3.096 1.216-.597 2.338-1.397 3.324-2.384 4.832-4.844 4.832-12.725 0-17.57zm-4.372 23.049c0 4.15-3.368 7.526-7.508 7.526H14.834c-.156 0-.308.046-.438.131l-5.15 3.405-.08-2.796c-.011-.404-.323-.736-.725-.771-3.842-.336-6.851-3.629-6.851-7.495 0-4.151 3.368-7.528 7.507-7.528h8.789c.472.732 1.025 1.418 1.653 2.048 2.34 2.346 5.453 3.638 8.763 3.638 1.37 0 2.706-.222 3.968-.648.281.798.424 1.633.424 2.49z" transform="translate(-41 -258) translate(20 236) translate(21 22)"/>
                </g>
            </g>
        </g>
    </g>
</svg>
