<svg xmlns="http://www.w3.org/2000/svg" width="22" height="22" viewBox="0 0 22 22">
    <g fill="none" fill-rule="evenodd" opacity=".496">
        <g fill-rule="nonzero">
            <g>
                <path fill="#FF6060" fill-opacity="0" d="M0 0H22V22H0z" transform="translate(-50 -870) translate(50 870)"/>
                <path fill="#817889" d="M10.022 10.2l3.034-3.033c.202-.202.281-.497.207-.773-.074-.276-.289-.492-.565-.566-.276-.074-.57.005-.773.207l-4.4 4.4c-.15.15-.235.353-.235.566 0 .212.085.415.235.566l4.4 4.4c.202.202.497.28.773.207.276-.074.492-.29.566-.566.074-.277-.005-.571-.207-.773L10.022 11.8h8.873c.442 0 .8-.359.8-.8 0-.443-.358-.8-.8-.8h-8.873zm1.669-6.4c.286 0 .55-.152.693-.4.143-.247.143-.552 0-.8-.143-.247-.407-.4-.693-.4H4.094c-.531 0-1.04.21-1.417.586-.375.376-.586.886-.586 1.417v13.594c0 1.106.897 2.003 2.003 2.003h7.597c.442 0 .8-.358.8-.8 0-.442-.358-.8-.8-.8H4.094c-.107 0-.21-.042-.285-.118-.076-.076-.119-.178-.119-.285V4.203c0-.107.043-.21.119-.285.076-.076.178-.118.285-.118h7.597z" transform="translate(-50 -870) translate(50 870)"/>
            </g>
        </g>
    </g>
</svg>
