<?xml version="1.0" encoding="UTF-8"?>
<svg xmlns="http://www.w3.org/2000/svg" xmlns:xlink="http://www.w3.org/1999/xlink" width="20pt" height="20pt" viewBox="0 0 20 20" version="1.1">
<g id="surface1">
<path style="fill:none;stroke-width:1.5;stroke-linecap:round;stroke-linejoin:round;stroke:rgb(71.764706%,69.803922%,73.72549%);stroke-opacity:1;stroke-miterlimit:4;" d="M 6.392188 18.33125 C 6.392188 19.64375 7.090625 20.853125 8.225 21.509375 C 9.359375 22.165625 10.75625 22.165625 11.890625 21.509375 C 13.025 20.853125 13.728125 19.64375 13.728125 18.33125 C 13.728125 17.023437 13.025 15.814062 11.890625 15.157812 C 10.75625 14.501562 9.359375 14.501562 8.225 15.157812 C 7.090625 15.814062 6.392188 17.023437 6.392188 18.33125 Z M 6.392188 18.33125 " transform="matrix(0.833333,0,0,0.833333,0.833333,0.833333)"/>
<path style="fill:none;stroke-width:1.5;stroke-linecap:round;stroke-linejoin:round;stroke:rgb(71.764706%,69.803922%,73.72549%);stroke-opacity:1;stroke-miterlimit:4;" d="M 12.654688 15.739062 L 19.189062 9.2 C 19.428125 8.960937 19.817187 8.960937 20.05625 9.2 L 22.001562 11.145312 " transform="matrix(0.833333,0,0,0.833333,0.833333,0.833333)"/>
<path style="fill:none;stroke-width:1.5;stroke-linecap:round;stroke-linejoin:round;stroke:rgb(71.764706%,69.803922%,73.72549%);stroke-opacity:1;stroke-miterlimit:4;" d="M 16.835938 11.632812 L 18.560937 13.3625 " transform="matrix(0.833333,0,0,0.833333,0.833333,0.833333)"/>
<path style="fill:none;stroke-width:1.5;stroke-linecap:round;stroke-linejoin:round;stroke:rgb(71.764706%,69.803922%,73.72549%);stroke-opacity:1;stroke-miterlimit:4;" d="M 2.539063 20.309375 L 1.690625 20.309375 C 0.757813 20.309375 -0.0015625 19.55 -0.0015625 18.617187 L -0.0015625 1.690625 C -0.0015625 0.757812 0.757813 -0.0015625 1.690625 -0.0015625 L 20.309375 -0.0015625 C 21.242188 -0.0015625 22.001562 0.757812 22.001562 1.690625 L 22.001562 5.923437 " transform="matrix(0.833333,0,0,0.833333,0.833333,0.833333)"/>
<path style="fill:none;stroke-width:1.5;stroke-linecap:round;stroke-linejoin:round;stroke:rgb(71.764706%,69.803922%,73.72549%);stroke-opacity:1;stroke-miterlimit:4;" d="M -0.0015625 5.075 L 22.001562 5.075 " transform="matrix(0.833333,0,0,0.833333,0.833333,0.833333)"/>
</g>
</svg>
