<svg width="20" height="20" viewBox="0 0 20 20" fill="none" xmlns="http://www.w3.org/2000/svg">
<path fill-rule="evenodd" clip-rule="evenodd" d="M6.77586 17.7217C6.77586 18.9227 7.41659 20.0325 8.45668 20.633C9.49677 21.2335 10.7782 21.2335 11.8183 20.633C12.8584 20.0325 13.4991 18.9227 13.4991 17.7217C13.4991 16.5207 12.8584 15.4109 11.8183 14.8104C10.7782 14.21 9.49677 14.21 8.45668 14.8104C7.41659 15.4109 6.77586 16.5207 6.77586 17.7217Z" stroke="#B7B2BC" stroke-width="1.5" stroke-linecap="round" stroke-linejoin="round"/>
<path d="M12.5156 15.3436L18.5082 9.35097C18.7273 9.13264 19.0818 9.13264 19.3009 9.35097L21.0833 11.1349" stroke="#B7B2BC" stroke-width="1.5" stroke-linecap="round" stroke-linejoin="round"/>
<path d="M16.3488 11.5786L17.9327 13.164" stroke="#B7B2BC" stroke-width="1.5" stroke-linecap="round" stroke-linejoin="round"/>
<path d="M3.24359 19.532H2.46795C1.6112 19.532 0.916672 18.8375 0.916672 17.9808V2.46794C0.916672 1.61119 1.6112 0.916656 2.46795 0.916656H19.5321C20.3888 0.916656 21.0833 1.61119 21.0833 2.46794V6.34614" stroke="#B7B2BC" stroke-width="1.5" stroke-linecap="round" stroke-linejoin="round"/>
<path d="M0.916672 5.5705H21.0833" stroke="#B7B2BC" stroke-width="1.5" stroke-linecap="round" stroke-linejoin="round"/>
</svg>
