<svg xmlns="http://www.w3.org/2000/svg" width="130" height="130" viewBox="0 0 130 130">
    <defs>
        <linearGradient id="qz54ky5hga" x1="25.24%" x2="102.775%" y1="0%" y2="166.576%">
            <stop offset="0%" stop-color="#1785E9"/>
            <stop offset="100%" stop-color="#83CFF2"/>
            <stop offset="100%" stop-color="#83CFF2"/>
        </linearGradient>
    </defs>
    <g fill="none" fill-rule="evenodd">
        <g>
            <g>
                <g transform="translate(-150 -126) translate(81 126) translate(69)">
                    <circle cx="65" cy="65" r="64.5" stroke="#1986E9"/>
                    <circle cx="65" cy="65" r="58" fill="#E2F3FF"/>
                    <path fill="url(#qz54ky5hga)" fill-rule="nonzero" d="M65.5 74C71.275 74 76 69.375 76 63.722V47.278C76 41.625 71.275 37 65.5 37S55 41.625 55 47.278v16.444C55 69.375 59.725 74 65.5 74zm10.056 17c1.154 0 2.11-.935 2.11-2.063 0-1.127-.956-2.062-2.11-2.062H67.11v-4.254C76.611 81.59 84 73.727 84 64.188v-4.126C84 58.935 83.043 58 81.889 58c-1.155 0-2.111.935-2.111 2.063v4.124c0 7.96-6.63 14.438-14.778 14.438s-14.778-6.478-14.778-14.438v-4.124c0-1.128-.956-2.063-2.11-2.063-1.155 0-2.112.935-2.112 2.063v4.124c0 9.54 7.389 17.403 16.889 18.434v4.254h-8.445c-1.154 0-2.11.935-2.11 2.063 0 1.127.956 2.062 2.11 2.062h21.112z"/>
                </g>
            </g>
        </g>
    </g>
</svg>
